{"title":"The Eagle 2011 V2 TS XviD - iLLUSiON","uid":6188612,"size":1473798588,"categoryP":"video","categoryS":"movies","magnet":"?xt=urn:btih:4e624b737ab9f154872233ad671489af64a68c08&amp;dn=The+Eagle+2011+V2+TS+XviD+-+iLLUSiON&amp;tr=udp%3A%2F%2Ftracker.openbittorrent.com%3A80&amp;tr=udp%3A%2F%2Fopen.demonii.com%3A1337&amp;tr=udp%3A%2F%2Ftracker.coppersurfer.tk%3A6969&amp;tr=udp%3A%2F%2Fexodus.desync.com%3A6969","seeders":0,"leechers":0,"uploader":"hiest","files":-1,"time":1298207098,"description":"Movie Info\nPlot: In Roman-ruled Britain, a young Roman soldier endeavors to honor his father's memory by finding his lost legion's golden emblem. \nIMDB: http://www.imdb.com/title/tt1034389/\nIMDB Rating: 6.4\nTrailer:\n\n\n\nGeneral Info\nSize: 1.33GB\nFormat: AVI\nRuntime: 1:45:05\n\n\n\nSources\nVideo - 9.legion.2010.CAMRip.PROPER-Relizlab\nAudio - The Eagle 2011 V2 TS XViD - IMAGiNE\n(THANKS)\n\n\n\nVideo Info\nID : 0\nFormat : MPEG-4 Visual\nFormat profile : Advanced Simple@L5\nFormat settings, BVOP : Yes\nFormat settings, QPel : No\nFormat settings, GMC : No warppoints\nFormat settings, Matrix : Default (H.263)\nMuxing mode : Packed bitstream\nCodec ID : XVID\nCodec ID/Hint : XviD\nDuration : 1h 45mn\nBit rate : 1 621 Kbps\nWidth : 720 pixels\nHeight : 304 pixels\nDisplay aspect ratio : 2.35:1\nFrame rate : 25.000 fps\nColor space : YUV\nChroma subsampling : 4:2:0\nBit depth : 8 bits\nScan type : Progressive\nCompression mode : Lossy\nBits/(Pixel*Frame) : 0.296\nStream size : 1.19 GiB (89%)\nWriting library : XviD 1.0.3 (UTC 2004-12-20)\n\n\nAudio Info\nID : 1\nFormat : MPEG Audio\nFormat version : Version 1\nFormat profile : Layer 3\nCodec ID : 55\nCodec ID/Hint : MP3\nDuration : 1h 45mn\nBit rate mode : Constant\nBit rate : 192 Kbps\nChannel(s) : 2 channels\nSampling rate : 44.1 KHz\nCompression mode : Lossy\nStream size : 144 MiB (11%)\nAlignment : Split accross interleaves\nInterleave, duration : 40 ms (1.00 video frame)\nInterleave, preload duration : 500 ms\n\n\n\nEncoders Notes\nI dropped the source into vdubmod.\nI lowered the brightness, increased the contrast,\nlightly de-noised &amp; sharpened it.\nThen i changed the colors with a rgb eq.\nFinaly i re-sized it &amp; muxed it to imagines line audio.\nIts a very good TS, deffinatley worth watching.\nThere are quite a few parts where the audio isnt in english, \nbut there arent any hardcoded russian subtitles.\nSo if you go to the cinema &amp; watch it i doubt there will be any english sub's.\nIts a little dark in a few places but you can see everything thats going on.\nHere is a screenshot comparison beetween mine &amp; imagines encode's. &lt;a href=&quot;\nhttp://screenshotcomparison.com/comparison/29693&quot; rel=&quot;nofollow&quot; target=&quot;_NEW&quot;&gt;\nhttp://screenshotcomparison.com/comparison/29693&lt;/a&gt;\nCheck the sample to make sure your happy with the quality.\nEnjoy...\n\n\nI am looking for;\nCammers, Cams, Screeners (any type), Cam audio, Line audio, \nUn-released R6's R5's R4's R2's R1's, \nA 25GB+ FTP server, A Windows Server\n&amp; a syncer. \nIf you can provide any of these please\ncontact me at &lt;a class=&quot;__cf_email__&quot; href=&quot;/cdn-cgi/l/email-protection&quot; data-cfemail=&quot;4a2326263f392325240a223f3922272b232664272f&quot;&gt;[email&amp;#160;protected]&lt;/a&gt;&lt;script cf-hash='f9e31' type=&quot;text/javascript&quot;&gt;\n/* &lt;![CDATA[ */!function(){try{var t=&quot;currentScript&quot;in document?document.currentScript:function(){for(var t=document.getElementsByTagName(&quot;script&quot;),e=t.length;e--;)if(t[e].getAttribute(&quot;cf-hash&quot;))return t[e]}();if(t&amp;&amp;t.previousSibling){var e,r,n,i,c=t.previousSibling,a=c.getAttribute(&quot;data-cfemail&quot;);if(a){for(e=&quot;&quot;,r=parseInt(a.substr(0,2),16),n=2;a.length-n;n+=2)i=parseInt(a.substr(n,2),16)^r,e+=String.fromCharCode(i);e=document.createTextNode(e),c.parentNode.replaceChild(e,c)}}}catch(u){}}();/* ]]&gt; */&lt;/script&gt;\n\n\n\n\n\n================================== &lt;a href=&quot;\nhttp://thepiratebay.se/user/hiest&quot; rel=&quot;nofollow&quot; target=&quot;_NEW&quot;&gt;\nhttp://thepiratebay.se/user/hiest&lt;/a&gt;\n==================================\n\n","torrent":{"xt":"urn:btih:4e624b737ab9f154872233ad671489af64a68c08","amp;dn":"The+Eagle+2011+V2+TS+XviD+-+iLLUSiON","amp;tr":["udp%3A%2F%2Ftracker.openbittorrent.com%3A80","udp%3A%2F%2Fopen.demonii.com%3A1337","udp%3A%2F%2Ftracker.coppersurfer.tk%3A6969","udp%3A%2F%2Fexodus.desync.com%3A6969"],"infoHash":"4e624b737ab9f154872233ad671489af64a68c08","infoHashBuffer":{"type":"Buffer","data":[78,98,75,115,122,185,241,84,135,34,51,173,103,20,137,175,100,166,140,8]},"announce":[],"urlList":[]}}